# xmcd
# 
# Track frame offsets:
#     150
#     16290
#     29040
#     45185
#     57490
#     76400
#     93402
#     117532
#     139617
#     160980
#     175517
#     194337
#     209847
#     235575
#     254775
#     271560
#     287855
#     299867
#     315905
# 
# Disc length: 4416
# 
# Revision: 26
# Processed by: cddbd v1.5.2PL0 Copyright (c) Steve Scherf et al.
# Submitted via: fre:ac v1.0.17
# 
DISCID=19113e13
DTITLE=Various Artist - FINE -TV HITS and happy music-
DYEAR=2002
DGENRE=Pop
TTITLE0=DARYL HALL and JOHN OATES - Private Eyes
TTITLE1=NILSSON - Everybody's Talkin'
TTITLE2=BAY CITY ROLLERS - I Only Want To Be With You
TTITLE3=SYLVIE VARTAN - Irresistiblement
TTITLE4=CULTURE CLUB - Karma Chameleon
TTITLE5=A-HA - Take On Me
TTITLE6=EURYTHMICS - There Must Be An Angel
TTITLE7=STARSHIP - We Built This City
TTITLE8=THOMPSON TWINS - Hold Me Now
TTITLE9=RICK SPRINGFIELD - Jessie's Girl
TTITLE10=THE ALAN PARSONS PROJECT - Don't Answer Me
TTITLE11=ICK ASTLEY - Together Forever
TTITLE12=AIR SUPPLY - Making Love Out Of Nothing At All
TTITLE13=POCO - Call It Love
TTITLE14=ERIC CARMEN - Never Gonna Fall In Love Again
TTITLE15=FAIRGROUND ATTRACTION - Perfect
TTITLE16=THE TOKENS - The Lion Sleeps Tonight
TTITLE17=SILVER - Wham Bam
TTITLE18=TONY ORLANDO&DAWN - Tie A Yellow Ribbon Round The Ole Oak Tree
EXTD=YEAR: 2002
EXTT0=
EXTT1=
EXTT2=
EXTT3=
EXTT4=
EXTT5=
EXTT6=
EXTT7=
EXTT8=
EXTT9=
EXTT10=
EXTT11=
EXTT12=
EXTT13=
EXTT14=
EXTT15=
EXTT16=
EXTT17=
EXTT18=
PLAYORDER=
